<svg width="33" height="32" viewBox="0 0 33 32" fill="none" xmlns="http://www.w3.org/2000/svg">
<path fill-rule="evenodd" clip-rule="evenodd" d="M16.773 32C7.93645 32 0.77301 24.8366 0.77301 16C0.77301 7.16344 7.93645 0 16.773 0C25.6096 0 32.773 7.16344 32.773 16C32.773 24.8366 25.6096 32 16.773 32ZM17.4649 12.0074C16.0319 12.6034 13.1679 13.8371 8.87293 15.7083C8.17549 15.9856 7.81015 16.257 7.77689 16.5223C7.72068 16.9706 8.28216 17.1472 9.04675 17.3876C9.15075 17.4203 9.25851 17.4542 9.36899 17.4901C10.1212 17.7346 11.1331 18.0207 11.6592 18.0321C12.1363 18.0424 12.6689 17.8457 13.2569 17.4419C17.2698 14.7331 19.3413 13.3639 19.4713 13.3344C19.5631 13.3136 19.6902 13.2874 19.7764 13.3639C19.8625 13.4405 19.8541 13.5855 19.8449 13.6244C19.7893 13.8615 17.5853 15.9106 16.4447 16.971C16.0892 17.3015 15.8369 17.536 15.7854 17.5896C15.6699 17.7096 15.5522 17.823 15.439 17.9321C14.7402 18.6058 14.2161 19.111 15.468 19.936C16.0697 20.3325 16.5511 20.6603 17.0314 20.9874C17.5559 21.3446 18.0791 21.7009 18.7559 22.1446C18.9284 22.2576 19.0931 22.375 19.2535 22.4894C19.8639 22.9246 20.4123 23.3155 21.0899 23.2532C21.4835 23.217 21.8902 22.8468 22.0967 21.7427C22.5848 19.1335 23.5442 13.4801 23.7659 11.1505C23.7853 10.9464 23.7609 10.6851 23.7413 10.5705C23.7216 10.4558 23.6806 10.2924 23.5316 10.1715C23.3551 10.0283 23.0826 9.99805 22.9607 10.0001C22.4065 10.01 21.5564 10.3056 17.4649 12.0074Z" fill="white"/>
</svg>
