<svg width="33" height="33" viewBox="0 0 33 33" fill="none" xmlns="http://www.w3.org/2000/svg">
<path fill-rule="evenodd" clip-rule="evenodd" d="M32.773 16.5C32.773 7.66344 25.6096 0.5 16.773 0.5C7.93645 0.5 0.77301 7.66344 0.77301 16.5C0.77301 25.3366 7.93645 32.5 16.773 32.5C25.6096 32.5 32.773 25.3366 32.773 16.5ZM9.89301 9.62C8.77301 10.7507 8.77301 12.5587 8.77301 16.18V16.82C8.77301 20.436 8.77301 22.244 9.89301 23.38C11.0237 24.5 12.8317 24.5 16.453 24.5H17.093C20.709 24.5 22.517 24.5 23.653 23.38C24.773 22.2493 24.773 20.4413 24.773 16.82V16.18C24.773 12.564 24.773 10.756 23.653 9.62C22.5223 8.5 20.7143 8.5 17.093 8.5H16.453C12.837 8.5 11.029 8.5 9.89301 9.62Z" fill="white"/>
<path d="M17.285 20.0253C13.637 20.0253 11.557 17.5293 11.4717 13.3693H13.3063C13.365 16.42 14.709 17.7107 15.7757 17.9773V13.3693H17.4983V15.9987C18.549 15.8867 19.6583 14.6867 20.0317 13.364H21.749C21.609 14.0487 21.3293 14.6971 20.9273 15.2688C20.5254 15.8405 20.0099 16.3232 19.413 16.6867C20.0791 17.0182 20.6674 17.4872 21.139 18.0627C21.6106 18.6382 21.9548 19.3071 22.149 20.0253H20.2557C19.8503 18.7613 18.837 17.78 17.4983 17.6467V20.0253H17.285Z" fill="white"/>
</svg>
