<svg width="33" height="32" viewBox="0 0 33 32" fill="none" xmlns="http://www.w3.org/2000/svg">
<path d="M19.373 16L15.173 13.6V18.4L19.373 16Z" fill="white"/>
<path fill-rule="evenodd" clip-rule="evenodd" d="M0.77301 16C0.77301 7.16344 7.93645 0 16.773 0C25.6096 0 32.773 7.16344 32.773 16C32.773 24.8366 25.6096 32 16.773 32C7.93645 32 0.77301 24.8366 0.77301 16ZM22.973 10.7C23.673 10.9 24.173 11.4 24.373 12.1C24.773 13.4 24.773 16 24.773 16C24.773 16 24.773 18.6 24.473 19.9C24.273 20.6 23.773 21.1 23.073 21.3C21.773 21.6 16.773 21.6 16.773 21.6C16.773 21.6 11.673 21.6 10.473 21.3C9.77301 21.1 9.27301 20.6 9.07301 19.9C8.77301 18.6 8.77301 16 8.77301 16C8.77301 16 8.77301 13.4 8.97301 12.1C9.17301 11.4 9.67302 10.9 10.373 10.7C11.673 10.4 16.673 10.4 16.673 10.4C16.673 10.4 21.773 10.4 22.973 10.7Z" fill="white"/>
</svg>
